<?xml version="1.0" encoding="UTF-8"?><svg id="b" xmlns="http://www.w3.org/2000/svg" viewBox="0 0 158.65 430"><defs><style>.d{fill:#231f20;}</style></defs><g id="c"><path class="d" d="m150.26,0H8.39c-1.26,0-2.29,1.03-2.29,2.3v3.61c0,1.27,1.03,2.3,2.29,2.3h0L.64,33.13c-.42,1.36-.64,2.77-.64,4.19v373.55c0,1.04.29,2.05.84,2.93l5.27,8.45v5.24c0,1.39,1.12,2.51,2.49,2.51h139.93c1.38,0,2.49-1.12,2.49-2.51v-5.24l6.46-8.3c.76-.97,1.17-2.17,1.17-3.41V37.32c0-1.42-.22-2.84-.64-4.19l-7.76-24.9h0c1.26,0,2.29-1.03,2.29-2.3v-3.61c0-1.27-1.03-2.3-2.29-2.3Z"/></g></svg>