<?xml version="1.0" encoding="UTF-8"?><svg id="b" xmlns="http://www.w3.org/2000/svg" viewBox="0 0 144 430"><defs><style>.e{fill:#fdfdfd;}.f{fill:#231f20;}</style></defs><g id="c"><path class="f" d="m72,142h0c39.74,0,72,32.26,72,72v202.91c0,7.22-5.87,13.09-13.09,13.09H13.09C5.87,430,0,424.13,0,416.91v-202.91C0,174.26,32.26,142,72,142Z"/><circle class="f" cx="72" cy="63" r="63"/><g id="d"><path class="e" d="m89.03,202.75h-6.67v-5.48h-15.17v11.69c.17,0,.35.03.53.03,5,0,10,0,15,0,.31,0,.54.08.76.31,1.74,1.76,3.5,3.51,5.25,5.26.21.21.31.41.31.72,0,4.23,0,8.46-.02,12.69,0,.21-.11.48-.26.63-1.73,1.75-3.47,3.5-5.23,5.22-.15.15-.42.27-.63.27-5.42.01-10.84.01-16.26,0-.2,0-.45-.11-.6-.25-1.78-1.76-3.56-3.53-5.32-5.31-.13-.13-.25-.34-.25-.51-.02-1.96-.01-3.91,0-5.87,0-.06.01-.11.03-.19h6.65v5.43h15.18v-11.71h-.57c-4.98,0-9.97,0-14.95,0-.37,0-.62-.11-.87-.37-1.72-1.74-3.46-3.46-5.18-5.21-.16-.16-.28-.44-.28-.67-.02-4.2,0-8.4-.02-12.6,0-.3.09-.51.3-.72,1.76-1.74,3.51-3.5,5.26-5.25.22-.22.43-.32.75-.32,5.35.01,10.69,0,16.04,0,.3,0,.51.09.72.3,1.73,1.75,3.48,3.48,5.21,5.24.16.16.28.44.28.67.02,1.98.01,3.97.01,6Z"/><path class="e" d="m122.07,213.77c-1.31-.48-2.57-.93-3.83-1.39-.8-.29-1.6-.6-2.41-.87-.32-.1-.42-.25-.42-.58.02-1.58,0-3.16,0-4.74,0-.23,0-.4-.28-.5-4.05-1.46-8.1-2.94-12.15-4.41-.05-.02-.11-.03-.21-.05,0,.18,0,.34,0,.49,0,9.63,0,19.26,0,28.9,0,.35.08.53.43.66,3.93,1.55,7.84,3.13,11.76,4.69.13.05.27.09.46.16v-5.56c.55.2,1.04.37,1.52.55,1.6.58,3.21,1.17,4.81,1.73.26.09.36.21.36.49-.01,1.94-.01,3.88,0,5.82,0,.25-.09.39-.3.52-1.68,1.06-3.35,2.13-5.03,3.18-.15.1-.42.13-.59.07-5.26-1.91-10.51-3.84-15.76-5.77-.17-.06-.34-.22-.43-.38-1.27-2.31-2.52-4.62-3.77-6.94-.09-.17-.14-.38-.14-.57,0-10.39,0-20.77-.01-31.16,0-.24.07-.39.28-.52,1.67-1.05,3.32-2.11,4.99-3.15.15-.1.42-.13.59-.07,5.25,1.89,10.49,3.8,15.73,5.72.18.07.37.23.47.4,1.28,2.3,2.54,4.61,3.81,6.92.08.15.15.32.15.49,0,1.88,0,3.77,0,5.65,0,.06-.02.11-.03.24Z"/><path class="e" d="m34.67,199.63c0,.91,0,1.73,0,2.55,0,1.2-.01,2.4,0,3.61,0,.3-.09.44-.37.53-.77.26-1.52.56-2.29.81-.31.1-.38.26-.38.56,0,4.13,0,8.26,0,12.38,0,5.17,0,10.34,0,15.51v.57c.5-.2.94-.37,1.38-.54,3.61-1.45,7.22-2.9,10.83-4.33.34-.13.44-.31.44-.66-.01-9.14,0-18.28,0-27.42v-.52c-1.05.38-2.06.74-3.1,1.12v-6.58c4.21-1.5,8.44-3,12.72-4.52v5.67q0,.8-.75,1.08c-.58.21-1.16.44-1.76.62-.33.1-.44.25-.44.61.02,2.2,0,4.4,0,6.6,0,7.26,0,14.51-.01,21.77,0,.33-.1.69-.26.98-1.2,2.23-2.43,4.44-3.67,6.65-.12.21-.36.42-.58.51-5.14,1.89-10.29,3.77-15.43,5.65-.3.11-.52.1-.8-.08-1.61-1.05-3.24-2.08-4.87-3.1-.29-.18-.4-.38-.4-.72,0-9.57,0-19.15,0-28.72,0-.18,0-.37,0-.61-1.05.4-2.05.78-3.08,1.18v-6.51c4.22-1.53,8.46-3.08,12.79-4.65Z"/></g></g></svg>