<svg width="118" height="44" viewBox="0 0 118 44" fill="none" xmlns="http://www.w3.org/2000/svg">
<path d="M11.4688 44V2.5625H17.2812V0.25H0.375V2.5625H6.1875V44H11.4688ZM18.6562 44L19.9062 34.75H26.9062L28.0625 44H33.5L27.5312 0.25H21.9375L16.0312 44H18.6562ZM22 17.9688C22.5312 13.9062 22.875 10.6562 23.1875 6.5H23.8438C24.125 10.6562 24.4375 13.9062 24.9062 17.9688L26.6562 32.6562H20.1562L22 17.9688ZM44.8125 44C50.125 44 52.5625 41.5 52.5625 35.9375V28.7812C52.5625 23.9062 50.8438 21.8438 46.5312 21.3438V20.7812C50.25 20.3125 52 18.2812 52 14.1875V7.90625C52 2.53125 49.75 0.25 44.4688 0.25H35.8438V44H44.8125ZM41.125 2.46875H43.2188C45.9062 2.46875 46.8438 3.75 46.8438 7.09375V15.5C46.8438 18.75 45.8438 20.0312 43.1562 20.0312H41.125V2.46875ZM41.125 22.1562H43.375C46.0312 22.1562 47.1875 23.4375 47.1875 27.25V36.8438C47.1875 40.375 46.0938 41.7812 43.4375 41.7812H41.125V22.1562ZM64.625 44C69.9375 44 72.375 41.5 72.375 35.9375V28.7812C72.375 23.9062 70.6562 21.8438 66.3438 21.3438V20.7812C70.0625 20.3125 71.8125 18.2812 71.8125 14.1875V7.90625C71.8125 2.53125 69.5625 0.25 64.2812 0.25H55.6562V44H64.625ZM60.9375 2.46875H63.0312C65.7188 2.46875 66.6562 3.75 66.6562 7.09375V15.5C66.6562 18.75 65.6562 20.0312 62.9688 20.0312H60.9375V2.46875ZM60.9375 22.1562H63.1875C65.8438 22.1562 67 23.4375 67 27.25V36.8438C67 40.375 65.9062 41.7812 63.25 41.7812H60.9375V22.1562ZM88.8438 44V41.6875H80.75V21.75H87.6875V19.5625H80.75V2.5625H88.4688V0.25H75.4688V44H88.8438ZM99.5 44C105.812 44 108.75 40.4688 108.75 33.1562V11.1562C108.75 3.8125 105.812 0.25 99.5 0.25H91.6562V44H99.5ZM96.9375 2.4375H99.1875C102.219 2.4375 103.406 4.375 103.406 8.90625V35.4375C103.406 39.875 102.219 41.8125 99.1875 41.8125H96.9375V2.4375ZM117.312 44V38.125H110.969V44H117.312Z" fill="#222222"/>
</svg>
